<svg height="512" viewBox="0 0 512 512" width="512" xmlns="http://www.w3.org/2000/svg"><g id="solid"><path d="m256 302.071a25.929 25.929 0 1 0 18.343 7.586 25.861 25.861 0 0 0 -18.343-7.586z"/><path d="m340 272h-168a76.086 76.086 0 0 0 -76 76v132h48v-88a8 8 0 0 1 16 0v88h56v-88a8 8 0 0 1 8-8h64a8 8 0 0 1 8 8v88h56v-88a8 8 0 0 1 16 0v88h48v-132a76.086 76.086 0 0 0 -76-76zm-54.343 85.657a41.941 41.941 0 1 1 0-59.314 41.813 41.813 0 0 1 0 59.314z"/><path d="m256 32a96 96 0 1 0 96 96 96.108 96.108 0 0 0 -96-96zm-56 80a16 16 0 1 1 16 16 16 16 0 0 1 -16-16zm93.657 53.657a53.255 53.255 0 0 1 -75.314 0 8 8 0 0 1 11.314-11.314 37.254 37.254 0 0 0 52.686 0 8 8 0 0 1 11.314 11.314zm2.343-37.657a16 16 0 1 1 16-16 16 16 0 0 1 -16 16z"/></g></svg>